<svg xmlns="http://www.w3.org/2000/svg" width="337.7032470703125" height="298.37359619140625" viewBox="-64.95184326171875 -326.0263366699219 337.7032470703125 298.37359619140625"><title>Neo4j Graph Visualization</title><desc>Created using Neo4j (http://www.neo4j.com/)</desc><g class="layer relationships"><g class="relationship" transform="translate(219.6720256216767 -71.65275625540738) rotate(230.20342784468403)"><path class="b-outline" fill="#A5ABB6" stroke="none" d="M 25 0.5 L 34.694595372584814 0.5 L 34.694595372584814 -0.5 L 25 -0.5 Z M 82.24459460964536 0.5 L 91.93918998223018 0.5 L 91.93918998223018 3.5 L 98.93918998223018 0 L 91.93918998223018 -3.5 L 91.93918998223018 -0.5 L 82.24459460964536 -0.5 Z"/><text text-anchor="middle" pointer-events="none" font-size="8px" fill="#000000" x="58.46959499111509" y="3" transform="rotate(180 58.46959499111509 0)" font-family="Helvetica Neue, Helvetica, Arial, sans-serif">HAS_PORT</text></g><g class="relationship" transform="translate(140.34304487959704 -166.8779400455902) rotate(526.5004539551151)"><path class="b-outline" fill="#A5ABB6" stroke="none" d="M 25 0.5 L 46.64772121134633 0.5 L 46.64772121134633 -0.5 L 25 -0.5 Z M 71.33105365458363 0.5 L 92.97877486592996 0.5 L 92.97877486592996 3.5 L 99.97877486592996 0 L 92.97877486592996 -3.5 L 92.97877486592996 -0.5 L 71.33105365458363 -0.5 Z"/><text text-anchor="middle" pointer-events="none" font-size="8px" fill="#000000" x="58.98938743296498" y="3" transform="rotate(180 58.98938743296498 0)" font-family="Helvetica Neue, Helvetica, Arial, sans-serif">FWD</text></g><g class="relationship" transform="translate(18.817212356100384 -137.70318732239053) rotate(243.38410665349642)"><path class="b-outline" fill="#A5ABB6" stroke="none" d="M 25 0.5 L 39.02521480201869 0.5 L 39.02521480201869 -0.5 L 25 -0.5 Z M 76.22521556495815 0.5 L 90.25043036697683 0.5 L 90.25043036697683 3.5 L 97.25043036697683 0 L 90.25043036697683 -3.5 L 90.25043036697683 -0.5 L 76.22521556495815 -0.5 Z"/><text text-anchor="middle" pointer-events="none" font-size="8px" fill="#000000" x="57.625215183488415" y="3" transform="rotate(180 57.625215183488415 0)" font-family="Helvetica Neue, Helvetica, Arial, sans-serif">HAS_EC</text></g><g class="relationship" transform="translate(140.34304487959704 -166.8779400455902) rotate(264.3352924710442)"><path class="b-outline" fill="#A5ABB6" stroke="none" d="M 25 0.5 L 47.03521056962984 0.5 L 47.03521056962984 -0.5 L 25 -0.5 Z M 76.75187774492281 0.5 L 98.78708831455265 0.5 L 98.78708831455265 3.5 L 105.78708831455265 0 L 98.78708831455265 -3.5 L 98.78708831455265 -0.5 L 76.75187774492281 -0.5 Z"/><text text-anchor="middle" pointer-events="none" font-size="8px" fill="#000000" x="61.893544157276324" y="3" transform="rotate(180 61.893544157276324 0)" font-family="Helvetica Neue, Helvetica, Arial, sans-serif">INACL</text></g><g class="relationship" transform="translate(228.75141133022845 -276.338529592818) rotate(488.9268752677689)"><path class="b-outline" fill="#A5ABB6" stroke="none" d="M 25 0.5 L 44.693745898127816 0.5 L 44.693745898127816 -0.5 L 25 -0.5 Z M 89.01041154754188 0.5 L 108.7041574456697 0.5 L 108.7041574456697 3.5 L 115.7041574456697 0 L 108.7041574456697 -3.5 L 108.7041574456697 -0.5 L 89.01041154754188 -0.5 Z"/><text text-anchor="middle" pointer-events="none" font-size="8px" fill="#000000" x="66.85207872283485" y="3" transform="rotate(180 66.85207872283485 0)" font-family="Helvetica Neue, Helvetica, Arial, sans-serif">LINKS_TO</text></g><g class="relationship" transform="translate(140.34304487959704 -166.8779400455902) rotate(493.7698113799147)"><path class="b-outline" fill="#A5ABB6" stroke="none" d="M 25 0.5 L 31.208965334816654 0.5 L 31.208965334816654 -0.5 L 25 -0.5 Z M 91.19229892246314 0.5 L 97.40126425727979 0.5 L 97.40126425727979 3.5 L 104.40126425727979 0 L 97.40126425727979 -3.5 L 97.40126425727979 -0.5 L 91.19229892246314 -0.5 Z"/><text text-anchor="middle" pointer-events="none" font-size="8px" fill="#000000" x="61.200632128639896" y="3" transform="rotate(180 61.200632128639896 0)" font-family="Helvetica Neue, Helvetica, Arial, sans-serif">IS_VLANPORT</text></g><g class="relationship" transform="translate(140.34304487959704 -166.8779400455902) rotate(228.8872743406473)"><path class="b-outline" fill="#A5ABB6" stroke="none" d="M 25 0.5 L 44.58699608626783 0.5 L 44.58699608626783 -0.5 L 25 -0.5 Z M 82.37032891097486 0.5 L 101.9573249972427 0.5 L 101.9573249972427 3.5 L 108.9573249972427 0 L 101.9573249972427 -3.5 L 101.9573249972427 -0.5 L 82.37032891097486 -0.5 Z"/><text text-anchor="middle" pointer-events="none" font-size="8px" fill="#000000" x="63.47866249862135" y="3" transform="rotate(180 63.47866249862135 0)" font-family="Helvetica Neue, Helvetica, Arial, sans-serif">OUTACL</text></g><g class="relationship" transform="translate(219.6720256216767 -71.65275625540738) rotate(180.60445361845518)"><path class="b-outline" fill="#A5ABB6" stroke="none" d="M 25 0.5 L 56.86834580228732 0.5 L 56.86834580228732 -0.5 L 25 -0.5 Z M 104.98501068876193 0.5 L 136.85335649104925 0.5 L 136.85335649104925 3.5 L 143.85335649104925 0 L 136.85335649104925 -3.5 L 136.85335649104925 -0.5 L 104.98501068876193 -0.5 Z"/><text text-anchor="middle" pointer-events="none" font-size="8px" fill="#000000" x="80.92667824552463" y="3" transform="rotate(180 80.92667824552463 0)" font-family="Helvetica Neue, Helvetica, Arial, sans-serif">HAS_VLAN</text></g></g><g class="layer nodes"><g class="node" aria-label="graph-node1227" transform="translate(50.82806541978471,-73.43407644989051)"><circle class="b-outline" cx="0" cy="0" r="25" fill="#FFC454" stroke="#d7a013" stroke-width="2px"/><text class="caption" text-anchor="middle" pointer-events="none" x="0" y="5" font-size="10px" fill="#2A2C34" font-family="Helvetica Neue, Helvetica, Arial, sans-serif"> vlan566</text></g><g class="node" aria-label="graph-node523" transform="translate(127.43346902933598,-297.0263373509929)"><circle class="b-outline" cx="0" cy="0" r="25" fill="#57C7E3" stroke="#23b3d7" stroke-width="2px"/><text class="caption" text-anchor="middle" pointer-events="none" x="0" y="5" font-size="10px" fill="#2A2C34" font-family="Helvetica Neue, Helvetica, Arial, sans-serif"> false</text></g><g class="node" aria-label="graph-node2263" transform="translate(52.26039717672532,-267.8037152175882)"><circle class="b-outline" cx="0" cy="0" r="25" fill="#57C7E3" stroke="#23b3d7" stroke-width="2px"/><text class="caption" text-anchor="middle" pointer-events="none" x="0" y="5" font-size="10px" fill="#2A2C34" font-family="Helvetica Neue, Helvetica, Arial, sans-serif"> false</text></g><g class="node" aria-label="graph-node306" transform="translate(18.817212356100384,-137.70318732239053)"><circle class="b-outline" cx="0" cy="0" r="25" fill="#8DCC93" stroke="#5db665" stroke-width="2px"/><text class="caption" text-anchor="middle" pointer-events="none" x="0" y="5" font-size="10px" fill="#2A2C34" font-family="Helvetica Neue, Helvetica, Arial, sans-serif"> true</text></g><g class="node" aria-label="graph-node646" transform="translate(140.34304487959704,-166.8779400455902)"><circle class="b-outline" cx="0" cy="0" r="25" fill="#FFC454" stroke="#d7a013" stroke-width="2px"/><text class="caption" text-anchor="middle" pointer-events="none" x="0" y="5" font-size="10px" fill="#2A2C34" font-family="Helvetica Neue, Helvetica, Arial, sans-serif"> te2/1</text></g><g class="node" aria-label="graph-node2240" transform="translate(219.6720256216767,-71.65275625540738)"><circle class="b-outline" cx="0" cy="0" r="25" fill="#F16667" stroke="#eb2728" stroke-width="2px"/><text class="caption" text-anchor="middle" pointer-events="none" x="0" y="5" font-size="10px" fill="#FFFFFF" font-family="Helvetica Neue, Helvetica, Arial, sans-serif"> soza_rtr</text></g><g class="node" aria-label="graph-node556" transform="translate(228.75141133022845,-276.338529592818)"><circle class="b-outline" cx="0" cy="0" r="25" fill="#FFC454" stroke="#d7a013" stroke-width="2px"/><text class="caption" text-anchor="middle" pointer-events="none" x="0" y="5" font-size="10px" fill="#2A2C34" font-family="Helvetica Neue, Helvetica, Arial, sans-serif"> te6/1</text></g><g class="node" aria-label="graph-node2399" transform="translate(-35.95184856678412,-246.99873933863873)"><circle class="b-outline" cx="0" cy="0" r="25" fill="#604A0E" stroke="#423204" stroke-width="2px"/><text class="caption" text-anchor="middle" pointer-events="none" x="0" y="5" font-size="10px" fill="#FFFFFF" font-family="Helvetica Neue, Helvetica, Arial, sans-serif"> 700029</text></g></g></svg>