<svg xmlns="http://www.w3.org/2000/svg" width="464.24981689453125" height="359.7744140625" viewBox="-44.86358642578125 -29.153472900390625 464.24981689453125 359.7744140625"><title>Neo4j Graph Visualization</title><desc>Created using Neo4j (http://www.neo4j.com/)</desc><g class="layer relationships"><g class="relationship" transform="translate(196.49544864069804 126.07513122412442) rotate(251.86017019357683)"><path class="outline" fill="#A5ABB6" stroke="none" d="M 25 0.5 L 50.80774534287916 0.5 L 50.80774534287916 -0.5 L 25 -0.5 Z M 75.02258909287916 0.5 L 100.83033443575832 0.5 L 100.83033443575832 3.5 L 107.83033443575832 0 L 100.83033443575832 -3.5 L 100.83033443575832 -0.5 L 75.02258909287916 -0.5 Z"/><text text-anchor="middle" pointer-events="none" font-size="8px" fill="#000000" x="62.91516721787916" y="3" transform="rotate(180 62.91516721787916 0)" font-family="sans-serif">FWD</text></g><g class="relationship" transform="translate(389.9046608674674 84.61214469507848) rotate(199.85297926334243)"><path class="outline" fill="#A5ABB6" stroke="none" d="M 25 0.5 L 109.1918685710245 0.5 L 109.1918685710245 -0.5 L 25 -0.5 Z M 133.4067123210245 0.5 L 217.598580892049 0.5 L 217.598580892049 3.5 L 224.598580892049 0 L 217.598580892049 -3.5 L 217.598580892049 -0.5 L 133.4067123210245 -0.5 Z"/><text text-anchor="middle" pointer-events="none" font-size="8px" fill="#000000" x="121.2992904460245" y="3" transform="rotate(180 121.2992904460245 0)" font-family="sans-serif">FWD</text></g><g class="relationship" transform="translate(196.49544864069804 126.07513122412442) rotate(209.88013548966958)"><path class="outline" fill="#A5ABB6" stroke="none" d="M 6.953439040707552 24.018736134675446 L 17.306200844808384 62.65576918623819 A 17.916697508022974 17.916697508022974 0 1 1 -17.306200844808384 62.65576918623819 L -8.765172356425198 30.780216918698923 L -4.901469051268926 31.815493099109005 L -6.4704761275630185 24.148145657226706 L -11.662949835292403 30.00375978339136 L -7.79924653013613 31.039035963801442 L -16.340275018519314 62.91458823134071 A 16.916697508022974 16.916697508022974 0 1 0 16.340275018519314 62.91458823134071 L 5.987513214418485 24.277555179777966 Z"/><text text-anchor="middle" pointer-events="none" font-size="8px" fill="#000000" x="0" y="94.20964923467838" transform="rotate(180 0 91.20964923467838)" font-family="sans-serif">LINKS_TO</text></g><g class="relationship" transform="translate(390.38621363409635 200.8610501275631) rotate(269.7626576936607)"><path class="outline" fill="#A5ABB6" stroke="none" d="M 25 0.5 L 30.72651391356635 0.5 L 30.72651391356635 -0.5 L 25 -0.5 Z M 78.52338891356635 0.5 L 84.2499028271327 0.5 L 84.2499028271327 3.5 L 91.2499028271327 0 L 84.2499028271327 -3.5 L 84.2499028271327 -0.5 L 78.52338891356635 -0.5 Z"/><text text-anchor="middle" pointer-events="none" font-size="8px" fill="#000000" x="54.62495141356635" y="3" transform="rotate(180 54.62495141356635 0)" font-family="sans-serif">HAS_VLAN</text></g><g class="relationship" transform="translate(300.0178719722578 241.9301369564926) rotate(318.21756882300133)"><path class="outline" fill="#A5ABB6" stroke="none" d="M 6.953439040707552 24.018736134675446 L 17.306200844808384 62.65576918623819 A 17.916697508022974 17.916697508022974 0 1 1 -17.306200844808384 62.65576918623819 L -8.765172356425198 30.780216918698923 L -4.901469051268926 31.815493099109005 L -6.4704761275630185 24.148145657226706 L -11.662949835292403 30.00375978339136 L -7.79924653013613 31.039035963801442 L -16.340275018519314 62.91458823134071 A 16.916697508022974 16.916697508022974 0 1 0 16.340275018519314 62.91458823134071 L 5.987513214418485 24.277555179777966 Z"/><text text-anchor="middle" pointer-events="none" font-size="8px" fill="#000000" x="0" y="94.20964923467838" font-family="sans-serif">FWD_NEXT</text></g><g class="relationship" transform="translate(196.49544864069804 126.07513122412442) rotate(408.2175688230014)"><path class="outline" fill="#A5ABB6" stroke="none" d="M 24.018736134675446,6.953439040707552 L 24.277555179777966,5.987513214418485 A 201.3858493692429 201.3858493692429 0 0 0 46.58432221464565,10.630190323054734 L 46.436269477626524,11.619169790516594 A 202.3858493692429 202.3858493692429 0 0 1 24.018736134675446,6.953439040707552 Z M 101.88359161001003,12.2387711271831 L 101.7576759727323,11.246730174253742 A 201.3858493692429 201.3858493692429 0 0 0 124.16261985393561,7.103688301059534 L 123.4511114993092,4.189283411327012 L 131.08148265574923,5.9292362885533505 L 125.11129766010416,10.989561487369564 L 124.39978930547775,8.07515659763704 A 202.3858493692429 202.3858493692429 0 0 1 101.88359161001003,12.2387711271831"/><text text-anchor="middle" pointer-events="none" font-size="8px" fill="#000000" x="74.14419676571808" y="16.3369659085935" font-family="sans-serif">ORIG_STATE</text></g><g class="relationship" transform="translate(390.38621363409635 200.8610501275631) rotate(201.09220599484632)"><path class="outline" fill="#A5ABB6" stroke="none" d="M 25 0.5 L 75.91860304545575 0.5 L 75.91860304545575 -0.5 L 25 -0.5 Z M 124.89516554545575 0.5 L 175.8137685909115 0.5 L 175.8137685909115 3.5 L 182.8137685909115 0 L 175.8137685909115 -3.5 L 175.8137685909115 -0.5 L 124.89516554545575 -0.5 Z"/><text text-anchor="middle" pointer-events="none" font-size="8px" fill="#000000" x="100.40688429545575" y="3" transform="rotate(180 100.40688429545575 0)" font-family="sans-serif">HAS_PORT</text></g><g class="relationship" transform="translate(155.14043537006876 -0.15347339345613165) rotate(502.1801867292468)"><path class="outline" fill="#A5ABB6" stroke="none" d="M 25 0.5 L 85.73233955519751 0.5 L 85.73233955519751 -0.5 L 25 -0.5 Z M 123.74405830519751 0.5 L 184.47639786039502 0.5 L 184.47639786039502 3.5 L 191.47639786039502 0 L 184.47639786039502 -3.5 L 184.47639786039502 -0.5 L 123.74405830519751 -0.5 Z"/><text text-anchor="middle" pointer-events="none" font-size="8px" fill="#000000" x="104.73819893019751" y="3" transform="rotate(180 104.73819893019751 0)" font-family="sans-serif">HAS_EC</text></g><g class="relationship" transform="translate(141.77552925064094 244.93656041253277) rotate(215.47785402295028)"><path class="outline" fill="#A5ABB6" stroke="none" d="M 25 0.5 L 74.28364507175142 0.5 L 74.28364507175142 -0.5 L 25 -0.5 Z M 112.29536382175142 0.5 L 161.57900889350285 0.5 L 161.57900889350285 3.5 L 168.57900889350285 0 L 161.57900889350285 -3.5 L 161.57900889350285 -0.5 L 112.29536382175142 -0.5 Z"/><text text-anchor="middle" pointer-events="none" font-size="8px" fill="#000000" x="93.28950444675142" y="3" transform="rotate(180 93.28950444675142 0)" font-family="sans-serif">HAS_EC</text></g><g class="relationship" transform="translate(87.93594817730775 130.77166502040097) rotate(538.9988480789405)"><path class="outline" fill="#A5ABB6" stroke="none" d="M 25 0.5 L 29.401830538534263 0.5 L 29.401830538534263 -0.5 L 25 -0.5 Z M 67.41354928853426 0.5 L 71.81537982706853 0.5 L 71.81537982706853 3.5 L 78.81537982706853 0 L 71.81537982706853 -3.5 L 71.81537982706853 -0.5 L 67.41354928853426 -0.5 Z"/><text text-anchor="middle" pointer-events="none" font-size="8px" fill="#000000" x="48.40768991353426" y="3" transform="rotate(180 48.40768991353426 0)" font-family="sans-serif">HAS_EC</text></g><g class="relationship" transform="translate(196.49544864069804 126.07513122412442) rotate(474.71979883937667)"><path class="outline" fill="#A5ABB6" stroke="none" d="M 25 0.5 L 47.14487040837619 0.5 L 47.14487040837619 -0.5 L 25 -0.5 Z M 76.70737040837619 0.5 L 98.85224081675238 0.5 L 98.85224081675238 3.5 L 105.85224081675238 0 L 98.85224081675238 -3.5 L 98.85224081675238 -0.5 L 76.70737040837619 -0.5 Z"/><text text-anchor="middle" pointer-events="none" font-size="8px" fill="#000000" x="61.92612040837619" y="3" transform="rotate(180 61.92612040837619 0)" font-family="sans-serif">INACL</text></g><g class="relationship" transform="translate(196.49544864069804 126.07513122412442) rotate(408.2175688230014)"><path class="outline" fill="#A5ABB6" stroke="none" d="M 24.018736134675446,-6.953439040707552 L 24.277555179777966,-5.987513214418485 A 201.3858493692429 201.3858493692429 0 0 1 47.68498383434668,-10.791855234346826 L 47.54239653406577,-11.781637463828957 A 202.3858493692429 202.3858493692429 0 0 0 24.018736134675446,-6.953439040707552 Z M 100.77411019934527,-12.376480274475568 L 100.65367657286089,-11.383758892812097 A 201.3858493692429 201.3858493692429 0 0 1 124.16261985393561,-7.103688301059534 L 123.4511114993092,-4.189283411327012 L 131.08148265574923,-5.9292362885533505 L 125.11129766010416,-10.989561487369564 L 124.39978930547775,-8.07515659763704 A 202.3858493692429 202.3858493692429 0 0 0 100.77411019934527,-12.376480274475568"/><text text-anchor="middle" pointer-events="none" font-size="8px" fill="#000000" x="74.14419676571802" y="-10.336965908593498" font-family="sans-serif">FWD_STATE</text></g><g class="relationship" transform="translate(196.49544864069804 126.07513122412442) rotate(347.90010078576233)"><path class="outline" fill="#A5ABB6" stroke="none" d="M 25 0.5 L 64.90966110012393 0.5 L 64.90966110012393 -0.5 L 25 -0.5 Z M 125.89403610012393 0.5 L 165.80369720024785 0.5 L 165.80369720024785 3.5 L 172.80369720024785 0 L 165.80369720024785 -3.5 L 165.80369720024785 -0.5 L 125.89403610012393 -0.5 Z"/><text text-anchor="middle" pointer-events="none" font-size="8px" fill="#000000" x="95.40184860012393" y="3" font-family="sans-serif">IS_VLANPORT</text></g><g class="relationship" transform="translate(196.49544864069804 126.07513122412442) rotate(537.5227974305312)"><path class="outline" fill="#A5ABB6" stroke="none" d="M 25 0.5 L 31.902787826062095 0.5 L 31.902787826062095 -0.5 L 25 -0.5 Z M 69.7582565760621 0.5 L 76.66104440212419 0.5 L 76.66104440212419 3.5 L 83.66104440212419 0 L 76.66104440212419 -3.5 L 76.66104440212419 -0.5 L 69.7582565760621 -0.5 Z"/><text text-anchor="middle" pointer-events="none" font-size="8px" fill="#000000" x="50.830522201062095" y="3" transform="rotate(180 50.830522201062095 0)" font-family="sans-serif">OUTACL</text></g></g><g class="layer nodes"><g class="node" transform="translate(155.14043537006876,-0.15347339345613165)"><circle class="outline" cx="0" cy="0" r="25" fill="#8DCC93" stroke="#5db665" stroke-width="2px"/><text text-anchor="middle" pointer-events="none" font-family="sans-serif" dy="1.5625" font-size="25" fill="#2A2C34"/><text text-anchor="middle" pointer-events="none" x="0" y="5" font-size="10px" fill="#2A2C34" font-family="sans-serif"> Fwd</text></g><g class="node" transform="translate(141.77552925064094,244.93656041253277)"><circle class="outline" cx="0" cy="0" r="25" fill="#57C7E3" stroke="#23b3d7" stroke-width="2px"/><text text-anchor="middle" pointer-events="none" font-family="sans-serif" dy="1.5625" font-size="25" fill="#2A2C34"/><text text-anchor="middle" pointer-events="none" x="0" y="5" font-size="10px" fill="#2A2C34" font-family="sans-serif"> InAcl</text></g><g class="node" transform="translate(300.0178719722578,241.9301369564926)"><circle class="outline" cx="0" cy="0" r="25" fill="#D9C8AE" stroke="#c0a378" stroke-width="2px"/><text text-anchor="middle" pointer-events="none" font-family="sans-serif" dy="1.5625" font-size="25" fill="#2A2C34"/><text text-anchor="middle" pointer-events="none" x="0" y="5" font-size="10px" fill="#2A2C34" font-family="sans-serif"> State</text></g><g class="node" transform="translate(196.49544864069804,126.07513122412442)"><circle class="outline" cx="0" cy="0" r="25" fill="#FFC454" stroke="#d7a013" stroke-width="2px"/><text text-anchor="middle" pointer-events="none" font-family="sans-serif" dy="1.5625" font-size="25" fill="#2A2C34"/><text text-anchor="middle" pointer-events="none" x="0" y="5" font-size="10px" fill="#2A2C34" font-family="sans-serif"> Port</text></g><g class="node" transform="translate(390.38621363409635,200.8610501275631)"><circle class="outline" cx="0" cy="0" r="25" fill="#F16667" stroke="#eb2728" stroke-width="2px"/><text text-anchor="middle" pointer-events="none" font-family="sans-serif" dy="1.5625" font-size="25" fill="#FFFFFF"/><text text-anchor="middle" pointer-events="none" x="0" y="5" font-size="10px" fill="#FFFFFF" font-family="sans-serif"> Router</text></g><g class="node" transform="translate(87.93594817730775,130.77166502040097)"><circle class="outline" cx="0" cy="0" r="25" fill="#57C7E3" stroke="#23b3d7" stroke-width="2px"/><text text-anchor="middle" pointer-events="none" font-family="sans-serif" dy="1.5625" font-size="25" fill="#2A2C34"/><text text-anchor="middle" pointer-events="none" x="0" y="5" font-size="10px" fill="#2A2C34" font-family="sans-serif"> OutAcl</text></g><g class="node" transform="translate(389.9046608674674,84.61214469507848)"><circle class="outline" cx="0" cy="0" r="25" fill="#FFC454" stroke="#d7a013" stroke-width="2px"/><text text-anchor="middle" pointer-events="none" font-family="sans-serif" dy="1.5625" font-size="25" fill="#2A2C34"/><text text-anchor="middle" pointer-events="none" x="0" y="5" font-size="10px" fill="#2A2C34" font-family="sans-serif"> Vlan</text></g><g class="node" transform="translate(-15.863583617122742,132.58558009435615)"><circle class="outline" cx="0" cy="0" r="25" fill="#604A0E" stroke="#423204" stroke-width="2px"/><text text-anchor="middle" pointer-events="none" font-family="sans-serif" dy="1.5625" font-size="25" fill="#FFFFFF"/><text text-anchor="middle" pointer-events="none" x="0" y="5" font-size="10px" fill="#FFFFFF" font-family="sans-serif"> EC</text></g></g></svg>